<svg id="Layer_1" data-name="Layer 1" xmlns="http://www.w3.org/2000/svg" viewBox="0 0 2870.84 3498.78"><defs><style>.cls-1{fill:#fbbf01;}.cls-2{fill:#650000;}.cls-3{opacity:0.6;}.cls-4{fill:#fff;}.cls-5{opacity:0.3;}.cls-6{fill:#ee1822;}.cls-7{opacity:0.55;}.cls-8{fill:#dd7f33;}.cls-9{fill:#029e5e;}.cls-10{fill:#792937;}.cls-11{opacity:0.2;}</style></defs><path class="cls-1" d="M596.42,2889.66c84.76-80.84,166.9-169.31,245.31-264,64.2-77.5,125.92-159.25,184.59-244.41v-.07c317.33-460.42,546.15-1022.57,597.18-1572.24A2398.29,2398.29,0,0,0,1632.93,501c-6.29-181.08,189.82-298.11,345.72-205.74C2209.5,432,2419.85,645.41,2590.32,914.66q30.66,48.27,59.45,98.93c272.84,479.12,424.48,1111.72,360.94,1795.24q-6.86,74.25-17.17,149.4C2235.49,3474.89,1427.31,3332.41,596.42,2889.66Z" transform="translate(-480.58 -234.23)"/><path class="cls-2" d="M1795.21,269.32c61.46-18.87,127.7-11.25,185.25,22.85,230.23,136.35,442.16,351,612.88,620.59,20.19,31.79,40.22,65.13,59.53,99.07,293,514.45,421.3,1152.76,361.39,1797.33-4.68,50.71-10.47,101-17.19,149.56l-.22,1.56-1.3.89c-363.15,247.52-747,354.19-1173.49,326.11-373.92-24.62-775.37-153.65-1227.31-394.47l-4.36-2.33,3.58-3.4c84.2-80.32,166.64-169,245-263.74,63.5-76.67,125.25-158.38,183.53-242.91l.86-1.32c335.92-487.4,547.78-1045.17,596.56-1570.55a2404.07,2404.07,0,0,0,9.43-307.46c-3-86.58,39.67-164.65,114.16-208.83A238.46,238.46,0,0,1,1795.21,269.32Zm1195,2686.85c6.62-47.93,12.32-97.61,16.93-147.67,59.79-643.13-68.23-1279.95-360.49-1793.14-19.24-33.85-39.21-67.08-59.35-98.79-170.12-268.69-381.22-482.48-610.48-618.27-71.9-42.59-157.75-42.56-229.66.1-72.22,42.84-113.59,118.52-110.68,202.45A2409.34,2409.34,0,0,1,1627,809.23c-48.85,526.12-260.82,1084.58-596.93,1572.68l-.85,1.32c-58.66,85.14-120.83,167.45-184.78,244.66-77.45,93.57-158.86,181.33-242,260.94C1554.82,3395.15,2313.75,3416.49,2990.22,2956.17Z" transform="translate(-480.58 -234.23)"/><g class="cls-3"><path class="cls-4" d="M1889.41,312.25c-36.5-21.64-75.25-31.81-113.07-32.22,62.21-25.51,135.94-24.11,202.31,15.21C2629,680.37,3116.17,1674.44,3010.71,2808.83q-6.86,74.25-17.17,149.4c-243.86,166.21-492.89,264.22-746.2,305.85,222.65-48.63,441.75-142.17,657-288.83q10.41-75.06,17.17-149.4C3026.94,1691.46,2539.74,697.39,1889.41,312.25Z" transform="translate(-480.58 -234.23)"/></g><g class="cls-5"><path class="cls-2" d="M596.42,2889.66c84.76-80.84,166.9-169.31,245.31-264,4.79-.4,9.67-.68,14.5-.87l93.24-120.86c28.84,56,25.87,135.67,25.87,135.67l-.29,0a364.31,364.31,0,0,1,69.14,28.7c545.13,295.23,1427.16,327.88,1959.44,142.67,2.32-.73,4.74-1.41,7.08-2.07q-6.86,74.25-17.17,149.4C2235.49,3474.89,1427.31,3332.41,596.42,2889.66Z" transform="translate(-480.58 -234.23)"/></g><g class="cls-5"><path class="cls-2" d="M1026.32,2381.2v-.07c317.33-460.42,546.15-1022.57,597.18-1572.24,35.12-3.5,70.8.88,102.55,19.72,115.88,68.64,86.91,157.64,49.86,261.4s9.59,50.29,9.59,50.29l-26.16,110.25S1444.7,1738.84,1434.21,1798s10.19,201.69,18.7,265.39-121.86,107.22-163.53,231.31-103,183.26-103,183.26Z" transform="translate(-480.58 -234.23)"/></g><g class="cls-5"><path class="cls-2" d="M1026.32,2381.2v-.07c317.33-460.42,546.15-1022.57,597.18-1572.24,35.12-3.5,70.8.88,102.55,19.72,115.88,68.64,86.91,157.64,49.86,261.4s9.59,50.29,9.59,50.29l-26.16,110.25S1444.7,1738.84,1434.21,1798s10.19,201.69,18.7,265.39-121.86,107.22-163.53,231.31-103,183.26-103,183.26Z" transform="translate(-480.58 -234.23)"/></g><path class="cls-2" d="M1788,245.39c68-20.89,141.4-12.46,205.14,25.31,348,206.09,644.8,578.13,835.69,1047.58,205,504.14,271.69,1072.57,192.93,1643.84a28.53,28.53,0,0,1-56.52-7.79C3136.15,1715.15,2591,691,1964.11,319.78c-63.92-37.88-140.28-37.83-204.21.09C1695.65,358,1658.84,425.31,1661.44,500c14.5,415.72-83.92,871.11-284.62,1317-187,415.51-457.2,803.82-760.72,1093.41a28.52,28.52,0,0,1-39.37-41.28C1219.42,2255.88,1632.42,1304.61,1604.42,502c-3.33-95.84,43.92-182.26,126.38-231.17A264.31,264.31,0,0,1,1788,245.39Z" transform="translate(-480.58 -234.23)"/><path class="cls-1" d="M741.08,2056c12.54-38.91,41.5-71.29,80.41-83.86,81.57-26.37,145.93,42.73,169.48,114.46q1.53,4.6,2.85,9.25c16.94,57.6,17.65,119.17,33.38,177.29,17.06,63.61,60.23,128.18,126.72,136.19,13.3,1.6,27.26-.55,40.16-5.62,22-8.63,40.89-25.8,48.06-47.57,10.86-33.28,3-69.24.83-104.11-2.13-34.44,3.92-73.85,32.17-93.61,34.65-24.24,83.79-7.12,123.22-22.26,38.75-14.94,59.8-59.1,60.38-100.59s-15.21-81.3-30.76-119.79c-23.76-59.13-70.88-138.34-81.54-201.13s5.87-134.4,57-172.38c33.83-25.11,79.64-33.85,106.76-66l.06-.08a3.6,3.6,0,0,1,.35-.43c1.3-1.56,2.53-3.1,3.68-4.7a6.14,6.14,0,0,1,.58-.76c32.11-45.18,16.68-109.74-.59-163.73-30.78-143.16,86.55-124,165.71-76.24a38.57,38.57,0,0,0,23.9,5.46c22.44-2.25,41.21-24.12,33.78-49a2.47,2.47,0,0,0-.2-.69c-7.72-24.08-17.26-48.61-14.81-73.83,3.88-39.8,36.72-71.61,43.89-110.94,8.87-48.66-24-96-63.76-125.33s-87.12-46.9-127.52-75.28A285.38,285.38,0,0,1,1473.5,670.25c-16.72-43.49-21.75-95,3-134.86,26.51-42.58,85.15-51,125-20.42,25.43,19.54,50.79,37.57,78.19,47.23,20.78,7.36,42.67,9.86,66.55,4.51l169.72,521.51-378.24,877.53-119,276.18-136.85,317.41-131.19,47.88-74.39,22.9-96.33,29.69c32.45-59.76-26.58-146.64-58.3-206.73s-79.62-110-119.71-164.89C753.08,2221.27,714.05,2139.94,741.08,2056Z" transform="translate(-480.58 -234.23)"/><path class="cls-2" d="M1748.28,575.38a125.7,125.7,0,0,1-51.5,5.09,159.44,159.44,0,0,1-49.46-14.09,303,303,0,0,1-42.68-23.94c-6.62-4.35-13.13-8.84-19.42-13.19-4.74-2.79-9.38-5.63-14.54-7.29a60.64,60.64,0,0,0-31.48-2.86,56.16,56.16,0,0,0-27.61,12.21,52.92,52.92,0,0,0-9.8,11l-2.11,3.08-2,3.65c-1.46,2.35-2.29,5.07-3.54,7.54a98.27,98.27,0,0,0-6.32,34.27,152.22,152.22,0,0,0,4.51,37.61,201.17,201.17,0,0,0,13.11,37.59,265.2,265.2,0,0,0,44.47,68,255.39,255.39,0,0,0,29.68,27.86,286.94,286.94,0,0,0,34.16,23.23c24.51,14.55,52.14,27.76,79.92,44.77,13.8,8.56,27.75,18.13,41,29.88a211,211,0,0,1,34.83,39.79,155.35,155.35,0,0,1,22.72,50.74,122.48,122.48,0,0,1-.14,58.86c-4.9,19-13.15,34.63-20.5,48.35s-14.11,25.83-18,36.87-4.71,19.79-3,31.5,5.89,24.61,10.71,39.18l1.8,5.56.46,1.4c.17.56.48,1.51.64,2.26l1.08,4.77a46.3,46.3,0,0,1,1.32,9.81,49.49,49.49,0,0,1-.2,10.1,65.53,65.53,0,0,1-15.65,36.35,68.87,68.87,0,0,1-32.13,21,66.63,66.63,0,0,1-39.1,0,50.24,50.24,0,0,1-9.14-3.55l-4.32-2.2-2-1.07-1.11-.65c-3-1.72-5.91-3.48-9-5.08-6-3.33-12.19-6.29-18.39-9.13-12.46-5.45-25.25-10.13-37.79-12.89s-24.9-4-34.7-2.49a34.63,34.63,0,0,0-12.1,3.72,21.56,21.56,0,0,0-7.29,6.54c-4.07,5.31-6.68,15.52-6.92,27.36s1.52,25.18,4.33,38.54l-.72-2.69c9.18,29,17.85,59.58,20.13,93.35,1,16.84.33,34.66-4.12,52.72a123.92,123.92,0,0,1-25.62,50.82c-12.7,14.85-28.06,25.58-42.54,33.62s-28.52,14.24-41,20.47-23.45,12.31-32,19.71a107.85,107.85,0,0,0-22.77,26.44c-12.57,20.34-19.69,45.31-21.2,70.88a192.44,192.44,0,0,0,1.5,38.45,223,223,0,0,0,9.19,38.13c8.66,26,20.42,52.14,32.87,78.53s25.8,53,37.73,81.93c11.12,27.63,23,56.57,29.51,89.35a205.17,205.17,0,0,1,3.83,51.36,157.24,157.24,0,0,1-12.5,52.44,131.23,131.23,0,0,1-32.39,46,112.87,112.87,0,0,1-24.7,16.79,121,121,0,0,1-27.85,9.35c-18.19,3.59-34.75,3.62-49.14,4s-27.12,1.14-36.65,3.87c-9.3,3-15.51,7-20.57,14.11-5.15,7-8.75,17.26-10.51,28.83a123.22,123.22,0,0,0-1.47,18.13c-.08,6.32.2,12.39.77,19.43,1.1,13.88,3,28.73,3.93,44.91s.77,33.77-3.52,52.09c-.47,2.27-1.07,4.55-1.77,6.82a71.23,71.23,0,0,1-2.28,7,94.94,94.94,0,0,1-6.6,14.44,108.11,108.11,0,0,1-18.8,24,119,119,0,0,1-50.47,28.31,108.17,108.17,0,0,1-29.35,4,65.25,65.25,0,0,1-7.63-.27,61.15,61.15,0,0,1-7.37-.8c-4.56-.8-9.15-1.51-13.66-2.52a145.64,145.64,0,0,1-49.73-22.66,184.37,184.37,0,0,1-38-36c-21.4-26.75-35.57-57-45-88.32-9.13-31.14-13.56-61.65-17.8-91.05s-8.14-57.65-15.09-84c-1.71-6.57-3.65-13.13-5.78-19.28l-3.3-9.07-3.87-8.85c-5.49-11.61-11.72-23-19.45-33s-16.09-19.21-25.45-26.62a104.33,104.33,0,0,0-29.82-16.42c-10.35-3.68-21.09-4.29-31.88-3.42-2.71.42-5.42.53-8.13,1.07l-8.17,2.15a67.66,67.66,0,0,0-15.4,6.11c-19.65,10.22-35.6,28.53-44.59,50.07a104.28,104.28,0,0,0-5.54,17.06c-1.89,5.94-2.55,12.1-3.74,18.16-1.32,12.29-2,24.69-.63,37.24,2.42,25,10.27,50.32,21.93,74.62A339.66,339.66,0,0,0,803.69,2233c7.2,11.81,15.07,23.26,23.37,34.84,17,23.48,35,46.77,52.64,70.76,35.72,47.66,70.49,98.79,95.87,154.92a394.28,394.28,0,0,1,17.21,43.6,264.05,264.05,0,0,1,11.16,46.81,165.55,165.55,0,0,1,0,49.84,121,121,0,0,1-18,47.38,14.31,14.31,0,0,1-25.3-13l.23-.57c9.29-24.06,8.22-49.84,1.33-75.51-7.07-25.65-18.73-51-32.42-75.65-6.64-12.4-14.13-24.58-21.7-36.71s-15.21-24.27-23.38-35.94q-24.54-35.13-51.66-69.74c-18.06-23.12-36.45-46.45-54.42-70.69-18.34-24.69-35.61-51.26-49.19-80.45-13.78-29-24.06-61-27.24-94.85-1.76-16.9-.94-34.2,1.28-51.23,1.62-8.45,2.86-17,5.45-25.19a162.44,162.44,0,0,1,8.54-24.94c14.16-32.73,39.29-61.69,72.43-78.51a127.77,127.77,0,0,1,25.78-10.07l13.32-3.33c4.52-.87,9.23-1.25,13.84-1.83,18.53-1.57,37.94.15,55.54,6.39a161.92,161.92,0,0,1,47.4,26.25c13.78,11.08,25.35,23.91,35.53,37.44s18.31,28.24,25.43,43.32l5,11.47,4.3,11.77c2.68,7.82,4.94,15.45,7,23.18,16,61.74,17,121.72,32.41,173.37,7.48,25.22,19.13,49.45,34.79,68.89s35.06,33.84,56.5,38.87c2.7.58,5.44.93,8.15,1.48a20,20,0,0,0,3.64.41,21.72,21.72,0,0,0,3.44.13,51.13,51.13,0,0,0,14.42-2,62.07,62.07,0,0,0,26.14-14.56,51.43,51.43,0,0,0,8.52-10.76,39.52,39.52,0,0,0,2.59-5.7,25.42,25.42,0,0,0,1.13-3.5,31.8,31.8,0,0,0,1-3.9c2.53-10.53,2.86-22.77,2.14-36.11s-2.56-27.86-3.84-43.45c-.63-7.69-1.07-16.4-.93-24.87a179.07,179.07,0,0,1,2.13-26c2.77-17.51,8.28-36.25,20.56-53.35a93.39,93.39,0,0,1,22.7-22.38,104.41,104.41,0,0,1,28.13-13.19c19-5.34,36.27-5.73,51.22-6.16,15.12-.32,28.29-.69,39.17-2.87a63.73,63.73,0,0,0,14.1-4.65,55.52,55.52,0,0,0,11.84-8.09,74.39,74.39,0,0,0,18.09-26.1,100.66,100.66,0,0,0,7.94-33.41,149.27,149.27,0,0,0-2.89-36.84c-4.95-25.36-15.33-51.62-26.34-78.73-10.58-25.75-23.83-52.14-36.51-79.16s-25.38-54.88-35.47-85a280.38,280.38,0,0,1-11.48-48,248.85,248.85,0,0,1-1.94-50c2.06-33.34,11.1-67.13,29.59-97.23a165,165,0,0,1,34.89-40.36c14-11.82,29.23-20,43.13-26.91s27.15-12.74,38.38-19.1,20.34-13.08,26.94-20.74c13.35-15.38,18-37.68,16.35-63.13s-8.82-52.32-17.53-79.54l0-.16a23.57,23.57,0,0,1-.66-2.53c-3.41-16.36-5.92-33.4-5.59-51.89a127.58,127.58,0,0,1,3.84-29,86.8,86.8,0,0,1,13.62-30.08,79,79,0,0,1,26.39-23.52,91,91,0,0,1,31.08-10.1c20.35-2.91,38.66-.52,55.75,3.28s33,9.7,48.39,16.42c7.62,3.47,15.14,7.09,22.43,11.13,3.68,2,7.27,4.07,10.87,6.18l1.35.78a2.47,2.47,0,0,0,.54.24,5.46,5.46,0,0,1,.78.35,3.28,3.28,0,0,0,1.45.58,9.62,9.62,0,0,0,5.72,0,12,12,0,0,0,5.49-3.58,8.51,8.51,0,0,0,2.15-4.75,2.44,2.44,0,0,0,0-1.26,2.56,2.56,0,0,0-.21-1.44,4.28,4.28,0,0,1-.11-.8,1.4,1.4,0,0,0-.11-.49l-.43-1.31-1.71-5.28c-4.63-14.27-10.17-30.18-12.94-48.75a126.78,126.78,0,0,1-.92-29.51,133.34,133.34,0,0,1,6.46-28.81c6.24-17.68,14.46-32.17,21.38-45.25s12.61-24.77,15.17-35.29c5.15-20.11-.85-42.59-15-63.21a148.89,148.89,0,0,0-25.4-28.32c-9.6-8.34-20.84-16-32.94-23.29-24.19-14.56-51.71-27.23-79.63-43.46a348,348,0,0,1-41.2-27.94,316.83,316.83,0,0,1-36.8-34.39,309,309,0,0,1-54.77-84.09c-13.49-30.72-22.71-65-21.34-101.37A156.29,156.29,0,0,1,1441,534.52c2.11-4.33,3.88-8.81,6.42-12.94l3.64-6.27,4.4-6.28a108.16,108.16,0,0,1,21.48-21.89c16.42-12.24,35.86-20.06,55.69-21.92a113.06,113.06,0,0,1,57.78,9.43,111,111,0,0,1,24.92,15.26c5.79,4.86,11.4,9.54,17.1,14.09,11.4,9,22.73,17.48,34.42,24.55,23.33,14.38,48.19,21.83,75.26,19l.34,0a14.32,14.32,0,0,1,5.87,27.87Z" transform="translate(-480.58 -234.23)"/><ellipse class="cls-6" cx="2323.33" cy="2972.89" rx="279.88" ry="237.57" transform="translate(-524.57 -199.32) rotate(-0.85)"/><g class="cls-7"><path class="cls-4" d="M2566,2920.47c1.95,131.2-121.76,239.41-276.32,241.71-87.23,1.3-165.62-31.42-217.73-83.74,46.1,79.59,143.27,133.66,254.92,132,154.56-2.3,278.27-110.52,276.32-241.71-.85-57.16-25.43-109.23-65.66-149.63C2555.25,2849.7,2565.45,2884.05,2566,2920.47Z" transform="translate(-480.58 -234.23)"/></g><g class="cls-5"><path class="cls-2" d="M2009.73,2885.61c-1.93-131.17,121.74-239.4,276.28-241.72,146.23-2.12,267.76,91.22,282,212.49-48.43-73.52-141.77-122.57-248.18-121-154.56,2.26-278.23,110.48-276.29,241.72a187.33,187.33,0,0,0,1.44,20.85C2023.07,2964.73,2010.32,2926.43,2009.73,2885.61Z" transform="translate(-480.58 -234.23)"/></g><g class="cls-5"><path class="cls-2" d="M2043.5,2977.09c-1.94-131.24,121.73-239.46,276.29-241.72,144.4-2.2,264.7,88.9,281.37,207.89-49-71.8-141.17-119.42-246.06-117.86-154.54,2.32-278.22,110.48-276.28,241.72a193,193,0,0,0,2,25.52C2057.68,3058.66,2044.13,3019.22,2043.5,2977.09Z" transform="translate(-480.58 -234.23)"/></g><path class="cls-2" d="M2222.34,2725.55a348.3,348.3,0,0,1,97.08-15.15c168.08-2.5,306.57,113.22,308.72,258s-132.82,264.53-300.9,267-306.56-113.22-308.72-258h0C2016.81,2862,2102.36,2762.39,2222.34,2725.55ZM2410,3172.46c99.12-30.43,169.57-110.58,168.19-203.36-1.74-117.22-117.51-210.89-258.07-208.8s-253.46,99.16-251.72,216.39S2186,3187.57,2326.5,3185.48A299.66,299.66,0,0,0,2410,3172.46Zm-366.56-195.4-.07,0Z" transform="translate(-480.58 -234.23)"/><ellipse class="cls-6" cx="1714.26" cy="2519.77" rx="231.14" ry="196.19" transform="translate(-517.89 -208.44) rotate(-0.85)"/><g class="cls-5"><path class="cls-2" d="M1446,2408.46c-1.65-108.36,100.5-197.74,228.19-199.66s232.42,84.45,234,192.75c0,3.55,0,7-.24,10.5-41.71-54.26-114.45-89.68-196.61-88.45-123.49,1.84-223.22,85.61-227.94,189.15C1460.19,2482.77,1446.55,2447.05,1446,2408.46Z" transform="translate(-480.58 -234.23)"/></g><g class="cls-5"><path class="cls-2" d="M1483.14,2523.19c-1.63-108.29,100.59-197.69,228.2-199.59,109.67-1.61,202.51,61.92,227.45,148.55-42.81-47.87-111-78.29-187.33-77.15-127.69,1.92-229.84,91.3-228.19,199.66a167.37,167.37,0,0,0,6.52,44.12C1501.09,2606.65,1483.81,2566.68,1483.14,2523.19Z" transform="translate(-480.58 -234.23)"/></g><g class="cls-7"><path class="cls-4" d="M1485.12,2546.91c37,68.07,118.8,114.76,213,113.42,127.62-1.91,229.84-91.3,228.19-199.66a178.55,178.55,0,0,0-2-23.72,169.91,169.91,0,0,1,21.09,79.38c1.58,108.37-100.59,197.69-228.2,199.59C1599,2717.7,1500.42,2643.88,1485.12,2546.91Z" transform="translate(-480.58 -234.23)"/></g><path class="cls-2" d="M1629.06,2311.41a294.05,294.05,0,0,1,81.91-12.77c67.65-1,131.75,20.56,180.52,60.72,50,41.14,78,96.75,78.84,156.6s-25.44,116.27-74.15,158.88c-47.55,41.6-111,65-178.63,66.06s-131.74-20.56-180.51-60.72c-50-41.14-78-96.75-78.84-156.6h0c-.89-59.85,25.44-116.27,74.15-158.88A264.32,264.32,0,0,1,1629.06,2311.41Zm155.77,369a214.38,214.38,0,0,0,78.49-43.15c37.49-32.8,57.77-75.62,57.1-120.57s-22.21-87.15-60.66-118.81c-39.65-32.65-92.22-50.17-148-49.34s-107.84,19.9-146.5,53.72c-37.49,32.8-57.77,75.61-57.1,120.56,0,0,0,0,0,0,.68,44.95,22.22,87.15,60.67,118.81,39.65,32.65,92.22,50.17,148,49.34A243.93,243.93,0,0,0,1784.83,2680.42Z" transform="translate(-480.58 -234.23)"/><path class="cls-8" d="M509.12,3120.82c.29-42.65,8.67-84.86,23.65-124.81,75.14-200.4,313.11-282.38,501.31-180.45,545.12,295.26,1427.19,327.91,1959.46,142.67,263.05-82.33,464.85,356.55,215.84,573.39-454.61,270.79-2109.75,236.61-2603-199.39C545.64,3278.49,508.54,3201.94,509.12,3120.82Z" transform="translate(-480.58 -234.23)"/><g class="cls-5"><path class="cls-2" d="M509.12,3120.82c.28-42.67,8.64-84.84,23.67-124.8,75.1-200.37,313.09-282.42,501.31-180.46,545.06,295.23,1427.17,327.87,1959.44,142.67,193.66-60.6,354.06,161.21,325.95,369-60.5-101.05-165.17-163.85-280.12-126C2510,3394.67,1627.55,3375.6,1077.91,3088.71c-189.68-99-426.41-13.41-498.46,188.12-2.43,6.71-4.61,13.51-6.65,20.36C532.26,3247.5,508.63,3185.66,509.12,3120.82Z" transform="translate(-480.58 -234.23)"/></g><g class="cls-7"><path class="cls-4" d="M509.27,3131.53c16.12,46.07,44.54,87.76,81.91,120.78,493.21,436,2148.35,470.18,2603,199.39,88.89-77.42,120.34-183.15,112.05-283.35,36.4,120.46,16.3,264.76-96.81,363.27-454.61,270.79-2109.75,236.61-2603-199.39C548.35,3280.88,511.85,3208.64,509.27,3131.53Z" transform="translate(-480.58 -234.23)"/></g><path class="cls-2" d="M747.44,2760.25a390,390,0,0,1,300.22,30.23c565.66,306.39,1445.59,311.68,1936.51,140.81.71-.26,1.45-.47,2.17-.69,119.21-36.6,241.84,21.49,312.75,148.29,74.7,133.59,84.35,339-71,474.24a29.1,29.1,0,0,1-4.14,3c-224.88,133.95-736.41,200.41-1303.16,169.32-280.73-15.4-547.24-54.28-770.72-112.45C897,3547.13,707.73,3459.86,587.53,3353.6,519,3293,480,3208.05,480.59,3120.62c.32-45.11,8.88-90.41,25.47-134.62,37.76-100.7,117.72-180.25,219.37-218.26Q736.35,2763.65,747.44,2760.25Zm2200.22,243c-259,79.53-594.19,113.09-930.79,92.32-382.62-23.61-736.47-114.13-996.37-254.91a332.83,332.83,0,0,0-275.09-19.47c-87.46,32.7-153.5,98.35-185.94,184.86-14.22,37.91-21.57,76.61-21.83,115l-28.53-.2,28.53.2c-.5,70.94,31.46,140.13,87.67,189.84,216.29,191.2,701.76,324.89,1298.63,357.64,545.73,29.93,1054.82-34.36,1268.62-160.07,129.33-114.39,120.24-288.14,56.74-401.7-45.56-81.46-134.08-156-246.14-121.62l-.69.21Q2975.7,2994.62,2947.66,3003.23Z" transform="translate(-480.58 -234.23)"/><path class="cls-2" d="M594.46,3279.21c23.43,20.18,49.44,36.76,77.45,47.78a222.61,222.61,0,0,0,87.78,15.65c59.91-1.37,119.14-27.85,163-70.27,22-21.1,40.7-45.89,53.71-73.31s20.33-57,23.4-86.62a311.58,311.58,0,0,0-3.92-90.24c-5.42-30.5-15.61-60.71-27.42-92.48l-.11-.29a9.74,9.74,0,0,1,15.72-10.57c26.21,24,46.74,54.81,60.31,89.14a248,248,0,0,1,16,110c-3.08,37.59-15.1,73.93-32.17,106.89a337.47,337.47,0,0,1-66.11,88.74,315,315,0,0,1-92,61.53,292.08,292.08,0,0,1-108.85,24.47A279.74,279.74,0,0,1,651,3380.07c-34.86-13.71-66.48-34-94.17-58a28.52,28.52,0,1,1,37.29-43.16Z" transform="translate(-480.58 -234.23)"/><g class="cls-5"><ellipse class="cls-2" cx="1931.45" cy="636.99" rx="33.28" ry="22.58" transform="translate(-565.72 138.86) rotate(-10.8)"/></g><g class="cls-5"><ellipse class="cls-2" cx="2356.27" cy="1132.74" rx="46.4" ry="31.49" transform="matrix(0.99, -0.14, 0.14, 0.99, -616.11, 107.29)"/></g><g class="cls-5"><ellipse class="cls-2" cx="2667.67" cy="1969" rx="21.16" ry="14.36" transform="translate(-730.28 159.21) rotate(-8.06)"/></g><g class="cls-5"><ellipse class="cls-2" cx="1499.06" cy="2824.6" rx="21.16" ry="14.36" transform="translate(-983.17 96.59) rotate(-10.8)"/></g><g class="cls-5"><ellipse class="cls-2" cx="2096.47" cy="641.82" rx="52.54" ry="35.65" transform="translate(-563.7 169.86) rotate(-10.8)"/></g><g class="cls-5"><ellipse class="cls-2" cx="1394.72" cy="2764.64" rx="52.54" ry="35.65" transform="translate(-973.79 75.99) rotate(-10.8)"/></g><path class="cls-9" d="M2174.76,1010.09c-19.38,55.8-40,66.61-58.64,60.15s-28.1-27.75-8.72-83.55,50.18-95.8,68.78-89.34S2194.14,954.29,2174.76,1010.09Z" transform="translate(-480.58 -234.23)"/><path class="cls-9" d="M1693.1,1802.15c-17.43,50.18-36,59.9-52.73,54.09s-25.27-25-7.84-75.13,45.12-86.15,61.85-80.34S1710.53,1752,1693.1,1802.15Z" transform="translate(-480.58 -234.23)"/><path class="cls-9" d="M2726.47,2646.08c57.43,13.83,70.21,33.32,65.6,52.47s-24.87,30.68-82.3,16.85-100.24-40.57-95.63-59.71S2669,2632.24,2726.47,2646.08Z" transform="translate(-480.58 -234.23)"/><path class="cls-9" d="M2167.31,2434.59c-36.16,46.71-59.18,50.37-74.75,38.32s-17.8-35.26,18.36-82,78.09-74.81,93.67-62.76S2203.47,2387.87,2167.31,2434.59Z" transform="translate(-480.58 -234.23)"/><g class="cls-5"><path class="cls-2" d="M741.08,2056c12.54-38.91,41.5-71.29,80.41-83.86,81.57-26.37,145.93,42.73,169.48,114.46q1.53,4.6,2.85,9.25a180.41,180.41,0,0,1-18.55-2.48c-156-28.34-140.71,119.38-4.16,293,36.31,46.16,60.61,90.62,76.73,131,23.26,58.29-8,124-68,142.49h0c32.45-59.76-26.58-146.64-58.3-206.73s-79.62-110-119.71-164.89C753.08,2221.27,714.05,2139.94,741.08,2056Z" transform="translate(-480.58 -234.23)"/></g><g class="cls-5"><path class="cls-2" d="M1704.46,1235.75c-.21,0-.37,0-.58,0,22.44-2.25,41.21-24.12,33.78-49a2.47,2.47,0,0,0-.2-.69c-7.72-24.08-17.26-48.61-14.81-73.83,3.88-39.8,36.72-71.61,43.89-110.94,8.87-48.66-24-96-63.76-125.33s-87.12-46.9-127.52-75.28A285.38,285.38,0,0,1,1473.5,670.25c-16.72-43.49-21.75-95,3-134.86,26.51-42.58,85.15-51,125-20.42,25.43,19.54,50.79,37.57,78.19,47.23-4.29,1.11-10.25,1.45-18.1,1-135.59-6.8-121,117.44-31.91,167.61s123.36,83.54,193,191.85-24.31,177-24.31,177S1858.35,1221.65,1704.46,1235.75Z" transform="translate(-480.58 -234.23)"/></g><g class="cls-5"><path class="cls-2" d="M1514.86,1470.3c32.11-45.18,16.68-109.74-.59-163.73-30.78-143.16,86.55-124,165.71-76.24a38.57,38.57,0,0,0,23.9,5.46c-153.36,14.22-165,102.25-162.69,152.54C1543,1426.9,1523.89,1457.91,1514.86,1470.3Z" transform="translate(-480.58 -234.23)"/></g><path class="cls-10" d="M1514.28,1471.06c-1.73,2.36-3,4-3.68,4.7C1511.9,1474.2,1513.13,1472.66,1514.28,1471.06Z" transform="translate(-480.58 -234.23)"/><path class="cls-2" d="M1511.41,1469l5.77,4.18c-.45.63-.91,1.25-1.39,1.86a40.24,40.24,0,0,1-2.59,3.19l-5.33-4.72c.84-1,1.66-2,2.43-3Z" transform="translate(-480.58 -234.23)"/><g class="cls-5"><path class="cls-2" d="M1194.08,2403.66c22-8.63,40.89-25.8,48.06-47.57,10.86-33.28,3-69.24.83-104.11-2.13-34.44,3.92-73.85,32.17-93.61,34.65-24.24,83.79-7.12,123.22-22.26,38.75-14.94,59.8-59.1,60.38-100.59s-15.21-81.3-30.76-119.79c-23.76-59.13-70.88-138.34-81.54-201.13s5.87-134.4,57-172.38c33.83-25.11,79.64-33.85,106.76-66-3,4-116.42,156.5-28,344.92,28.27,60.31,45.72,106.49,55.45,144.56,21.08,82.8,6.1,127.54-12.34,195.66-16.06,59.32-61.86,62.39-106.67,80.52-30.39,12.33-60.41,31.56-80.53,79.82C1288.31,2441.36,1194.08,2403.66,1194.08,2403.66Z" transform="translate(-480.58 -234.23)"/></g><path class="cls-2" d="M2095.42,1661.75C2106.54,1783,2171,1845,2237.16,1852.53c55.73,6.49,112.56-25.79,139.47-93.85,13.15-33.07,19.16-74.51,14.61-124.08C2304.59,1574.53,2171.32,1591.56,2095.42,1661.75Z" transform="translate(-480.58 -234.23)"/><path class="cls-6" d="M2229.12,1819.75a82.64,82.64,0,0,0,11.2,33.08c55.87,5.09,111.88-28.6,137.08-97.31a84.35,84.35,0,0,0-148.28,64.23Z" transform="translate(-480.58 -234.23)"/><path class="cls-2" d="M2292.05,1868.85a141.8,141.8,0,0,1-57.36,4.93c-65.84-7.5-147.44-67-160.58-210.07a21.41,21.41,0,0,1,6.78-17.66c86.1-79.63,230.8-92.64,322.54-29a21.4,21.4,0,0,1,9.11,15.62c4.63,50.46-.76,95.52-16,133.93C2375.85,1818.84,2337.53,1855.25,2292.05,1868.85Zm-174.18-198.32c13.47,109.69,73.32,155.23,121.71,160.75,49.57,5.77,95.55-25.82,117.16-80.47,11.77-29.6,16.46-64.54,14-104C2298.13,1602.88,2187.1,1613.31,2117.87,1670.53Z" transform="translate(-480.58 -234.23)"/><ellipse class="cls-6" cx="1858.54" cy="1575.97" rx="47.66" ry="87.37" transform="translate(-251.9 3153.21) rotate(-88.32)"/><ellipse class="cls-6" cx="2620.19" cy="1578.22" rx="47.66" ry="87.37" transform="translate(485.14 3916.72) rotate(-88.32)"/><path class="cls-2" d="M1756.22,1466.08a198.59,198.59,0,0,1-9.9-62.22,175.78,175.78,0,0,1,13.29-65.32c9.06-21.25,23.16-41.83,42.88-57.29a127.49,127.49,0,0,1,143.13-10.72c21.53,12.33,38.58,30,50.71,49.45s19.71,40.57,23.89,61.54a221.48,221.48,0,0,1,2.11,62.49,10.89,10.89,0,0,1-21.17,2.24l-.15-.47c-6-18.33-12-35.82-19.65-52-7.82-16-17.12-30.49-27.81-42.51s-23-21.38-35.92-27.18a81.93,81.93,0,0,0-39.77-6.74,84.12,84.12,0,0,0-37.3,14.27,113.46,113.46,0,0,0-30,32.57c-8.44,13.38-15.21,29-20.56,45.83-5.13,17-8.63,35.11-12.51,54.25l-.1.51a11,11,0,0,1-21.22,1.26Z" transform="translate(-480.58 -234.23)"/><path class="cls-2" d="M2385.45,1405.55a198.63,198.63,0,0,1-9.9-62.22,175.74,175.74,0,0,1,13.29-65.32c9.06-21.25,23.16-41.83,42.88-57.29A127.49,127.49,0,0,1,2574.85,1210c21.53,12.33,38.58,30,50.71,49.45s19.71,40.57,23.89,61.54a221.11,221.11,0,0,1,2.1,62.49,10.88,10.88,0,0,1-21.16,2.24l-.15-.47c-6-18.33-12-35.82-19.66-52s-17.11-30.49-27.8-42.51-23-21.38-35.92-27.18a81.93,81.93,0,0,0-39.77-6.74,84,84,0,0,0-37.3,14.27,113.46,113.46,0,0,0-29.95,32.57c-8.45,13.38-15.21,29-20.56,45.83-5.13,17-8.63,35.11-12.51,54.25l-.1.51a11,11,0,0,1-21.22,1.26Z" transform="translate(-480.58 -234.23)"/><g class="cls-11"><path class="cls-4" d="M3043.32,3397.91c10.66-17.06,11.21-42.25-4.28-55.08-13.76-11.39-33.85-9.17-51.48-6.33l-190.71,30.68-270.41,43.51c-29,4.67-65.47,17.45-65.68,46.83-.19,28,33.25,42.07,60.71,47.26,93.92,17.77,191.12,17.36,285-.29C2880.6,3490.55,2999.48,3468,3043.32,3397.91Z" transform="translate(-480.58 -234.23)"/></g><g class="cls-11"><path class="cls-4" d="M2093.11,3454.73c-.36-36.73,59.41-45.37,133.25-46.1s133.77,6.75,134.13,43.48-59.2,67.08-133,67.81S2093.47,3491.46,2093.11,3454.73Z" transform="translate(-480.58 -234.23)"/></g><g class="cls-5"><path class="cls-4" d="M2734.23,2486.73c26.22-14.77,49-38.22,56.12-67.47s-5.14-64-32.33-76.89c-27.46-13-59.88-1.6-87.34,11.42s-57,28.06-86.74,21.69c-36.59-7.85-61.27-46-98.13-52.44-34.56-6-69.68,21.12-78.11,55.17s6.61,71.17,32.49,94.85,61,35.28,95.91,38.7C2598.69,2517.91,2678.22,2518.31,2734.23,2486.73Z" transform="translate(-480.58 -234.23)"/></g><g class="cls-5"><path class="cls-4" d="M2399,2238.45a71.54,71.54,0,0,0-66-90.85c-14.66-.58-30.85,4.53-38.06,17.3-7,12.36-3.65,27.87,1.27,41.18,7.76,21.06,24.58,62.37,48.49,70.44C2368.84,2284.66,2393,2259.94,2399,2238.45Z" transform="translate(-480.58 -234.23)"/></g><g class="cls-5"><path class="cls-2" d="M986.36,2615.66s27.34,99.05-79.49,153.86l-86.65,24.72-102,4.81,4.67-37.79,57.3-82.31,98.63-125.37,79.62-65.18Z" transform="translate(-480.58 -234.23)"/></g></svg>